<svg width="1092" height="1092" viewBox="0 0 1092 1092" fill="none" xmlns="http://www.w3.org/2000/svg">
<circle cx="547" cy="442" r="349" fill="#00A8A8"/>
<path d="M319.314 614H270L390.663 448.211L511.326 614H369.678L404.303 565.732H425.288L390.663 517.465L319.314 614Z" fill="white"/>
<path d="M557.492 614L413.746 415.683L438.928 381.056L607.856 614H557.492Z" fill="white"/>
<path d="M652.973 614L463.061 349.577L486.144 316L679.205 579.373L773.636 448.211H824L704.386 614H652.973Z" fill="white"/>
<path d="M626.384 316.386C626.617 316.585 630.041 317.881 633.964 319.276C637.887 320.705 642.608 322.631 644.437 323.562C651.086 326.983 657.503 332.697 661.692 339.009C664.518 343.228 665.714 345.82 668.806 354.357C671.399 361.533 671.965 362.53 673.095 361.799C673.461 361.566 674.724 358.543 676.253 354.357C679.345 345.82 680.542 343.228 683.368 339.009C687.557 332.697 693.974 326.983 700.623 323.562C702.451 322.631 707.172 320.705 711.095 319.309C715.018 317.881 718.443 316.519 718.709 316.286C718.975 316.054 719.074 315.555 718.941 315.057C718.775 314.359 717.944 313.961 712.026 311.868C708.303 310.539 703.881 308.778 702.152 307.981C692.743 303.563 685.064 296.055 680.343 286.653C679.545 285.059 677.916 281.072 676.752 277.783C673.394 268.481 673.594 268.913 672.43 269.046C671.466 269.146 671.399 269.245 668.707 276.62C667.21 280.74 665.349 285.391 664.551 286.919C659.83 296.221 652.25 303.596 642.908 307.981C641.179 308.778 636.79 310.506 633.133 311.835C629.476 313.13 626.384 314.393 626.251 314.592C625.852 315.19 625.952 316.02 626.384 316.386Z" fill="white"/>
<g clip-path="url(#clip0_29_1143)">
<path d="M83.8272 851L84.5201 853.079L110.06 920.295H120.554V919.503L93.7265 851H83.8272ZM83.8272 851L57 919.503V920.295H67.4933L93.0335 853.079L93.7265 851H83.8272Z" fill="#282828"/>
</g>
<g clip-path="url(#clip1_29_1143)">
<path d="M134.523 921V851.705H144.423V921H134.523Z" fill="#282828"/>
</g>
<path d="M418.827 852L419.52 854.079L445.06 921.295H455.554V920.503L428.727 852H418.827ZM418.827 852L392 920.503V921.295H402.493L428.034 854.079L428.727 852H418.827Z" fill="#282828"/>
<path d="M253 921.295V852H262.899V921.295H253Z" fill="#282828"/>
<g clip-path="url(#clip2_29_1143)">
<path d="M204.511 921L205.204 918.921L230.744 851.705H241.237V852.497L214.41 921H204.511ZM204.511 921L177.684 852.497V851.705H188.177L213.717 918.921L214.41 921H204.511Z" fill="#282828"/>
</g>
<g clip-path="url(#clip3_29_1143)">
<path d="M302.38 922.386C297.628 922.386 293.338 921.528 289.51 919.812C285.683 918.096 282.482 915.687 279.908 912.586C277.4 909.484 275.717 905.854 274.859 901.696L283.868 899.42L284.957 899.618C285.815 902.191 287.069 904.501 288.718 906.547C290.434 908.527 292.48 910.111 294.856 911.299C297.232 912.421 299.806 912.982 302.577 912.982C305.415 912.982 307.89 912.52 310.002 911.596C312.18 910.672 313.896 909.418 315.15 907.834C316.404 906.184 317.031 904.303 317.031 902.191C317.031 899.42 316.239 897.275 314.655 895.757C313.071 894.239 310.761 893.084 307.725 892.292L294.856 888.728C289.18 887.21 284.858 884.769 281.888 881.403C278.918 877.971 277.433 874.011 277.433 869.524C277.433 865.762 278.39 862.462 280.304 859.624C282.284 856.72 285.023 854.444 288.52 852.794C292.018 851.144 296.044 850.319 300.598 850.319C305.019 850.319 308.979 851.144 312.477 852.794C316.041 854.378 318.977 856.621 321.287 859.525C323.663 862.429 325.214 865.894 325.94 869.92L317.228 871.8L316.14 871.602C315.282 867.907 313.467 865.003 310.695 862.891C307.923 860.779 304.524 859.723 300.499 859.723C296.671 859.723 293.602 860.647 291.292 862.495C288.982 864.277 287.828 866.62 287.828 869.524C287.828 871.965 288.652 873.978 290.302 875.562C292.018 877.146 294.46 878.4 297.628 879.324L310.497 882.789C315.975 884.241 320.165 886.583 323.069 889.817C326.039 893.051 327.524 897.011 327.524 901.696C327.524 905.854 326.468 909.484 324.356 912.586C322.244 915.687 319.307 918.096 315.546 919.812C311.784 921.528 307.395 922.386 302.38 922.386Z" fill="#282828"/>
</g>
<g clip-path="url(#clip4_29_1143)">
<path d="M360.363 921V851.705H370.262V921H360.363ZM339.277 861.208V851.705H391.348V861.208H339.277Z" fill="#282828"/>
</g>
<g clip-path="url(#clip5_29_1143)">
<path d="M516.38 922.386C511.628 922.386 507.338 921.528 503.51 919.812C499.683 918.096 496.482 915.687 493.908 912.586C491.4 909.484 489.717 905.854 488.859 901.696L497.868 899.42L498.957 899.618C499.815 902.191 501.069 904.501 502.718 906.547C504.434 908.527 506.48 910.111 508.856 911.299C511.232 912.421 513.806 912.982 516.577 912.982C519.415 912.982 521.89 912.52 524.002 911.596C526.18 910.672 527.896 909.418 529.15 907.834C530.404 906.184 531.031 904.303 531.031 902.191C531.031 899.42 530.239 897.275 528.655 895.757C527.071 894.239 524.761 893.084 521.725 892.292L508.856 888.728C503.18 887.21 498.858 884.769 495.888 881.403C492.918 877.971 491.433 874.011 491.433 869.524C491.433 865.762 492.39 862.462 494.304 859.624C496.284 856.72 499.023 854.444 502.52 852.794C506.018 851.144 510.044 850.319 514.598 850.319C519.019 850.319 522.979 851.144 526.477 852.794C530.041 854.378 532.977 856.621 535.287 859.525C537.663 862.429 539.214 865.894 539.94 869.92L531.228 871.8L530.14 871.602C529.282 867.907 527.467 865.003 524.695 862.891C521.923 860.779 518.524 859.723 514.499 859.723C510.671 859.723 507.602 860.647 505.292 862.495C502.982 864.277 501.828 866.62 501.828 869.524C501.828 871.965 502.652 873.978 504.302 875.562C506.018 877.146 508.46 878.4 511.628 879.324L524.497 882.789C529.975 884.241 534.165 886.583 537.069 889.817C540.039 893.051 541.524 897.011 541.524 901.696C541.524 905.854 540.468 909.484 538.356 912.586C536.244 915.687 533.307 918.096 529.546 919.812C525.784 921.528 521.395 922.386 516.38 922.386Z" fill="#00A8A8"/>
</g>
<g clip-path="url(#clip6_29_1143)">
<path d="M586.618 922.386C580.217 922.386 574.508 920.901 569.493 917.931C564.477 914.895 560.55 910.672 557.712 905.26C554.941 899.848 553.555 893.546 553.555 886.352C553.555 879.159 554.941 872.856 557.712 867.445C560.55 862.033 564.477 857.842 569.493 854.873C574.508 851.837 580.217 850.319 586.618 850.319C593.086 850.319 598.795 851.837 603.744 854.873C608.76 857.842 612.654 862.033 615.425 867.445C618.263 872.856 619.682 879.159 619.682 886.352C619.682 893.546 618.263 899.848 615.425 905.26C612.654 910.672 608.76 914.895 603.744 917.931C598.795 920.901 593.086 922.386 586.618 922.386ZM586.618 912.883C591.04 912.883 595 911.794 598.498 909.616C601.995 907.438 604.734 904.369 606.714 900.409C608.694 896.384 609.684 891.698 609.684 886.352C609.684 880.941 608.694 876.255 606.714 872.295C604.734 868.336 601.995 865.267 598.498 863.089C595 860.911 591.04 859.822 586.618 859.822C582.197 859.822 578.237 860.911 574.739 863.089C571.307 865.267 568.569 868.336 566.523 872.295C564.543 876.255 563.553 880.941 563.553 886.352C563.553 891.698 564.543 896.384 566.523 900.409C568.569 904.369 571.307 907.438 574.739 909.616C578.237 911.794 582.197 912.883 586.618 912.883Z" fill="#00A8A8"/>
</g>
<g clip-path="url(#clip7_29_1143)">
<path d="M631.523 922V852.705H641.423V922H631.523ZM636.572 922V912.497H675.575V922H636.572Z" fill="#00A8A8"/>
</g>
<g clip-path="url(#clip8_29_1143)">
<path d="M713.471 922.386C708.126 922.386 703.506 921.33 699.612 919.218C695.719 917.04 692.716 913.972 690.604 910.012C688.558 905.986 687.535 901.201 687.535 895.658V851.705H697.435V895.856C697.435 901.333 698.787 905.557 701.493 908.527C704.265 911.431 708.258 912.883 713.471 912.883C718.685 912.883 722.645 911.431 725.351 908.527C728.122 905.557 729.508 901.333 729.508 895.856V851.705H739.507V895.658C739.507 901.201 738.451 905.986 736.339 910.012C734.227 913.972 731.224 917.04 727.33 919.218C723.437 921.33 718.817 922.386 713.471 922.386Z" fill="#00A8A8"/>
</g>
<g clip-path="url(#clip9_29_1143)">
<path d="M772.363 922V852.705H782.262V922H772.363ZM751.277 862.208V852.705H803.348V862.208H751.277Z" fill="#00A8A8"/>
</g>
<g clip-path="url(#clip10_29_1143)">
<path d="M815.523 922V852.705H825.423V922H815.523Z" fill="#00A8A8"/>
</g>
<g clip-path="url(#clip11_29_1143)">
<path d="M870.618 922.386C864.217 922.386 858.508 920.901 853.493 917.931C848.477 914.895 844.55 910.672 841.712 905.26C838.941 899.848 837.555 893.546 837.555 886.352C837.555 879.159 838.941 872.856 841.712 867.445C844.55 862.033 848.477 857.842 853.493 854.873C858.508 851.837 864.217 850.319 870.618 850.319C877.086 850.319 882.795 851.837 887.744 854.873C892.76 857.842 896.654 862.033 899.425 867.445C902.263 872.856 903.682 879.159 903.682 886.352C903.682 893.546 902.263 899.848 899.425 905.26C896.654 910.672 892.76 914.895 887.744 917.931C882.795 920.901 877.086 922.386 870.618 922.386ZM870.618 912.883C875.04 912.883 879 911.794 882.498 909.616C885.995 907.438 888.734 904.369 890.714 900.409C892.694 896.384 893.684 891.698 893.684 886.352C893.684 880.941 892.694 876.255 890.714 872.295C888.734 868.336 885.995 865.267 882.498 863.089C879 860.911 875.04 859.822 870.618 859.822C866.197 859.822 862.237 860.911 858.739 863.089C855.307 865.267 852.569 868.336 850.523 872.295C848.543 876.255 847.553 880.941 847.553 886.352C847.553 891.698 848.543 896.384 850.523 900.409C852.569 904.369 855.307 907.438 858.739 909.616C862.237 911.794 866.197 912.883 870.618 912.883Z" fill="#00A8A8"/>
</g>
<g clip-path="url(#clip12_29_1143)">
<path d="M960.862 922L915.523 855.378V852.705H925.423L970.861 919.327V922H960.862ZM915.523 922V852.705H925.423V922H915.523ZM960.862 922V852.705H970.861V922H960.862Z" fill="#00A8A8"/>
</g>
<path d="M1010.52 922.386C1005.77 922.386 1001.48 921.528 997.651 919.812C993.823 918.096 990.622 915.687 988.049 912.586C985.541 909.484 983.858 905.854 983 901.696L992.008 899.42L993.097 899.618C993.955 902.191 995.209 904.501 996.859 906.547C998.575 908.527 1000.62 910.111 1003 911.299C1005.37 912.421 1007.95 912.982 1010.72 912.982C1013.56 912.982 1016.03 912.52 1018.14 911.596C1020.32 910.672 1022.04 909.418 1023.29 907.834C1024.54 906.184 1025.17 904.303 1025.17 902.191C1025.17 899.42 1024.38 897.275 1022.8 895.757C1021.21 894.239 1018.9 893.084 1015.87 892.292L1003 888.728C997.321 887.21 992.998 884.769 990.029 881.403C987.059 877.971 985.574 874.011 985.574 869.524C985.574 865.762 986.531 862.462 988.445 859.624C990.424 856.72 993.163 854.444 996.661 852.794C1000.16 851.144 1004.18 850.319 1008.74 850.319C1013.16 850.319 1017.12 851.144 1020.62 852.794C1024.18 854.378 1027.12 856.621 1029.43 859.525C1031.8 862.429 1033.35 865.894 1034.08 869.92L1025.37 871.8L1024.28 871.602C1023.42 867.907 1021.61 865.003 1018.84 862.891C1016.06 860.779 1012.66 859.723 1008.64 859.723C1004.81 859.723 1001.74 860.647 999.433 862.495C997.123 864.277 995.968 866.62 995.968 869.524C995.968 871.965 996.793 873.978 998.443 875.562C1000.16 877.146 1002.6 878.4 1005.77 879.324L1018.64 882.789C1024.12 884.241 1028.31 886.583 1031.21 889.817C1034.18 893.051 1035.66 897.011 1035.66 901.696C1035.66 905.854 1034.61 909.484 1032.5 912.586C1030.38 915.687 1027.45 918.096 1023.69 919.812C1019.92 921.528 1015.54 922.386 1010.52 922.386Z" fill="#00A8A8"/>
<path d="M137.703 982.302H133.431C133.075 976.962 130.493 976.205 125.42 976.205C121.637 976.205 118.432 976.561 118.432 981.368C118.432 984.127 119.857 984.795 122.304 985.418L130.983 987.554C136.146 988.8 138.549 991.292 138.549 996.143C138.549 1003.58 133.03 1005.71 126.087 1005.71C118.655 1005.71 113.225 1003.26 113.092 994.719H117.364C117.587 1000.82 120.702 1001.88 126.443 1001.88C131.25 1001.88 134.276 1001.17 134.276 996.188C134.276 993.607 133.52 992.494 128.891 991.381L120.969 989.468C116.474 988.355 114.16 986.219 114.16 981.501C114.16 976.16 117.142 972.377 125.687 972.377C135.656 972.377 137.57 977.496 137.703 982.302ZM148.206 1005H143.934V973.09H150.387L159.333 990.803L168.323 973.09H174.464V1005H170.192V978.252L161.246 995.609H157.152L148.206 978.119V1005ZM189.686 991.826H198.053C196.361 986.975 194.492 982.213 192.49 977.362C188.529 986.219 185.146 995.387 182.565 1005H178.114C181.452 994.319 185.458 983.682 190.22 973.09H194.982C199.699 983.726 203.705 994.363 207.043 1005H202.325C201.391 1001.88 200.411 998.725 199.343 995.565H188.529L189.686 991.826ZM215.365 976.828V1005H211.092V973.09H223.643C230.63 973.09 236.461 973.846 236.461 981.857C236.461 988.355 233.479 990.447 228.628 991.025L238.374 1005H233.078L223.598 991.292H218.48V987.554H225.201C230.007 987.554 232.055 986.797 232.055 981.902C232.055 977.362 229.562 976.828 225.29 976.828H215.365ZM254.403 1005H250.13V980.032H254.403V1005ZM239.405 976.917V973.09H265.129V976.917H239.405ZM304.99 982.302H300.717C300.361 976.962 297.78 976.205 292.706 976.205C288.923 976.205 285.719 976.561 285.719 981.368C285.719 984.127 287.143 984.795 289.591 985.418L298.27 987.554C303.432 988.8 305.836 991.292 305.836 996.143C305.836 1003.58 300.317 1005.71 293.374 1005.71C285.942 1005.71 280.512 1003.26 280.378 994.719H284.651C284.873 1000.82 287.989 1001.88 293.73 1001.88C298.537 1001.88 301.563 1001.17 301.563 996.188C301.563 993.607 300.806 992.494 296.178 991.381L288.256 989.468C283.761 988.355 281.447 986.219 281.447 981.501C281.447 976.16 284.428 972.377 292.973 972.377C302.943 972.377 304.856 977.496 304.99 982.302ZM336.321 989.067C336.321 980.032 333.162 976.16 325.284 976.16C317.318 976.16 314.247 980.121 314.247 989.023C314.247 997.835 317.229 1001.93 325.284 1001.93C333.295 1001.93 336.321 997.924 336.321 989.067ZM340.728 989.023C340.728 998.235 337.301 1005.76 325.284 1005.76C313.045 1005.76 309.841 997.924 309.841 988.978C309.841 979.81 313.223 972.333 325.24 972.333C337.479 972.333 340.728 980.077 340.728 989.023ZM366.288 1005H345.949V973.09H350.221V1001.17H366.288V1005ZM389.904 992.672V973.09H394.176V991.648C394.176 1000.59 392.262 1005.71 381.359 1005.71C371.345 1005.71 369.075 1001.4 369.075 991.96V973.09H373.348V991.737C373.348 998.458 373.971 1001.88 381.759 1001.88C387.055 1001.88 389.904 1000.33 389.904 992.672ZM413.388 1005H409.116V980.032H413.388V1005ZM398.39 976.917V973.09H424.114V976.917H398.39ZM433.208 1005H428.935V973.09H433.208V1005ZM465.622 989.067C465.622 980.032 462.462 976.16 454.585 976.16C446.618 976.16 443.547 980.121 443.547 989.023C443.547 997.835 446.529 1001.93 454.585 1001.93C462.596 1001.93 465.622 997.924 465.622 989.067ZM470.028 989.023C470.028 998.235 466.601 1005.76 454.585 1005.76C442.346 1005.76 439.141 997.924 439.141 988.978C439.141 979.81 442.524 972.333 454.54 972.333C466.779 972.333 470.028 980.077 470.028 989.023ZM479.611 1005H475.338V973.09H480.279L496.301 998.413V973.09H500.573V1005H495.766L479.611 979.721V1005ZM530.734 982.302H526.461C526.105 976.962 523.524 976.205 518.45 976.205C514.667 976.205 511.463 976.561 511.463 981.368C511.463 984.127 512.887 984.795 515.335 985.418L524.013 987.554C529.176 988.8 531.579 991.292 531.579 996.143C531.579 1003.58 526.06 1005.71 519.118 1005.71C511.685 1005.71 506.256 1003.26 506.122 994.719H510.395C510.617 1000.82 513.732 1001.88 519.474 1001.88C524.28 1001.88 527.307 1001.17 527.307 996.188C527.307 993.607 526.55 992.494 521.921 991.381L513.999 989.468C509.504 988.355 507.19 986.219 507.19 981.501C507.19 976.16 510.172 972.377 518.717 972.377C528.686 972.377 530.6 977.496 530.734 982.302ZM559.142 994.942H547.838V990.981H559.142V994.942ZM600.013 982.302H595.74C595.384 976.962 592.803 976.205 587.729 976.205C583.946 976.205 580.742 976.561 580.742 981.368C580.742 984.127 582.166 984.795 584.614 985.418L593.292 987.554C598.455 988.8 600.858 991.292 600.858 996.143C600.858 1003.58 595.339 1005.71 588.397 1005.71C580.964 1005.71 575.535 1003.26 575.401 994.719H579.674C579.896 1000.82 583.011 1001.88 588.753 1001.88C593.559 1001.88 596.586 1001.17 596.586 996.188C596.586 993.607 595.829 992.494 591.2 991.381L583.278 989.468C578.783 988.355 576.469 986.219 576.469 981.501C576.469 976.16 579.451 972.377 587.996 972.377C597.965 972.377 599.879 977.496 600.013 982.302ZM610.516 1005H606.243V973.09H612.696L621.642 990.803L630.632 973.09H636.774V1005H632.501V978.252L623.556 995.609H619.461L610.516 978.119V1005ZM651.995 991.826H660.362C658.671 986.975 656.802 982.213 654.799 977.362C650.838 986.219 647.455 995.387 644.874 1005H640.423C643.761 994.319 647.767 983.682 652.529 973.09H657.291C662.009 983.726 666.014 994.363 669.352 1005H664.634C663.7 1001.88 662.721 998.725 661.653 995.565H650.838L651.995 991.826ZM677.674 976.828V1005H673.402V973.09H685.952C692.94 973.09 698.77 973.846 698.77 981.857C698.77 988.355 695.788 990.447 690.937 991.025L700.684 1005H695.387L685.908 991.292H680.79V987.554H687.51C692.317 987.554 694.364 986.797 694.364 981.902C694.364 977.362 691.871 976.828 687.599 976.828H677.674ZM716.712 1005H712.44V980.032H716.712V1005ZM701.714 976.917V973.09H727.438V976.917H701.714ZM739.291 990.447V986.708H753.711V990.447H739.291ZM736.176 976.828V1001.26H755.536V1005H731.903V973.09H755.09V976.828H736.176ZM765.816 976.828V1005H761.543V973.09H774.094C781.081 973.09 786.912 973.846 786.912 981.857C786.912 988.355 783.93 990.447 779.079 991.025L788.825 1005H783.529L774.049 991.292H768.931V987.554H775.652C780.458 987.554 782.506 986.797 782.506 981.902C782.506 977.362 780.013 976.828 775.741 976.828H765.816ZM810.366 1005H806.093V973.09H828.035V976.828H810.366V1005ZM825.809 990.447H813.481V986.708H825.809V990.447ZM853.951 992.672V973.09H858.224V991.648C858.224 1000.59 856.31 1005.71 845.406 1005.71C835.393 1005.71 833.123 1001.4 833.123 991.96V973.09H837.395V991.737C837.395 998.458 838.018 1001.88 845.807 1001.88C851.103 1001.88 853.951 1000.33 853.951 992.672ZM877.436 1005H873.163V980.032H877.436V1005ZM862.438 976.917V973.09H888.162V976.917H862.438ZM913.278 992.672V973.09H917.55V991.648C917.55 1000.59 915.636 1005.71 904.732 1005.71C894.719 1005.71 892.449 1001.4 892.449 991.96V973.09H896.722V991.737C896.722 998.458 897.345 1001.88 905.133 1001.88C910.429 1001.88 913.278 1000.33 913.278 992.672ZM928.974 976.828V1005H924.701V973.09H937.252C944.239 973.09 950.069 973.846 950.069 981.857C950.069 988.355 947.087 990.447 942.236 991.025L951.983 1005H946.687L937.207 991.292H932.089V987.554H938.809C943.616 987.554 945.663 986.797 945.663 981.902C945.663 977.362 943.171 976.828 938.898 976.828H928.974ZM964.252 990.447V986.708H978.672V990.447H964.252ZM961.137 976.828V1001.26H980.497V1005H956.864V973.09H980.052V976.828H961.137Z" fill="#282828"/>
<path d="M57.1653 987.871C57.2654 987.955 58.7382 988.498 60.4255 989.084C62.1128 989.683 64.1434 990.491 64.9298 990.881C67.7897 992.316 70.5495 994.712 72.3512 997.359C73.5667 999.128 74.0814 1000.21 75.4113 1003.8C76.5266 1006.8 76.7697 1007.22 77.2559 1006.92C77.4132 1006.82 77.9566 1005.55 78.6144 1003.8C79.9442 1000.21 80.459 999.128 81.6744 997.359C83.4761 994.712 86.2359 992.316 89.0958 990.881C89.8823 990.491 91.9128 989.683 93.6001 989.097C95.2874 988.498 96.7603 987.927 96.8747 987.83C96.9891 987.732 97.032 987.523 96.9748 987.314C96.9033 987.022 96.5458 986.855 94.0005 985.977C92.399 985.42 90.4971 984.681 89.7536 984.347C85.7069 982.494 82.4037 979.346 80.3732 975.403C80.03 974.734 79.3293 973.062 78.8288 971.683C77.3846 967.783 77.4704 967.964 76.9699 968.019C76.5552 968.061 76.5266 968.103 75.3684 971.196C74.7249 972.923 73.9242 974.874 73.581 975.514C71.5505 979.415 68.2902 982.508 64.2721 984.347C63.5285 984.681 61.641 985.406 60.068 985.963C58.4951 986.506 57.1653 987.036 57.1081 987.119C56.9365 987.37 56.9794 987.718 57.1653 987.871Z" fill="#282828"/>
<path d="M996.165 987.871C996.265 987.955 997.738 988.498 999.426 989.084C1001.11 989.683 1003.14 990.491 1003.93 990.881C1006.79 992.316 1009.55 994.712 1011.35 997.359C1012.57 999.128 1013.08 1000.21 1014.41 1003.8C1015.53 1006.8 1015.77 1007.22 1016.26 1006.92C1016.41 1006.82 1016.96 1005.55 1017.61 1003.8C1018.94 1000.21 1019.46 999.128 1020.67 997.359C1022.48 994.712 1025.24 992.316 1028.1 990.881C1028.88 990.491 1030.91 989.683 1032.6 989.097C1034.29 988.498 1035.76 987.927 1035.87 987.83C1035.99 987.732 1036.03 987.523 1035.97 987.314C1035.9 987.022 1035.55 986.855 1033 985.977C1031.4 985.42 1029.5 984.681 1028.75 984.347C1024.71 982.494 1021.4 979.346 1019.37 975.403C1019.03 974.734 1018.33 973.062 1017.83 971.683C1016.38 967.783 1016.47 967.964 1015.97 968.019C1015.56 968.061 1015.53 968.103 1014.37 971.196C1013.72 972.923 1012.92 974.874 1012.58 975.514C1010.55 979.415 1007.29 982.508 1003.27 984.347C1002.53 984.681 1000.64 985.406 999.068 985.963C997.495 986.506 996.165 987.036 996.108 987.119C995.936 987.37 995.979 987.718 996.165 987.871Z" fill="#282828"/>
<defs>
<clipPath id="clip0_29_1143">
<rect width="65" height="70" fill="white" transform="matrix(1 0 0 -1 58 921)"/>
</clipPath>
<clipPath id="clip1_29_1143">
<rect width="11" height="70" fill="white" transform="translate(134 851)"/>
</clipPath>
<clipPath id="clip2_29_1143">
<rect width="65" height="70" fill="white" transform="translate(177 851)"/>
</clipPath>
<clipPath id="clip3_29_1143">
<rect width="54" height="73" fill="white" transform="translate(274 850)"/>
</clipPath>
<clipPath id="clip4_29_1143">
<rect width="53" height="70" fill="white" transform="translate(339 851)"/>
</clipPath>
<clipPath id="clip5_29_1143">
<rect width="54" height="73" fill="white" transform="translate(488 850)"/>
</clipPath>
<clipPath id="clip6_29_1143">
<rect width="67" height="73" fill="white" transform="translate(553 850)"/>
</clipPath>
<clipPath id="clip7_29_1143">
<rect width="45" height="70" fill="white" transform="translate(631 852)"/>
</clipPath>
<clipPath id="clip8_29_1143">
<rect width="53" height="72" fill="white" transform="translate(687 851)"/>
</clipPath>
<clipPath id="clip9_29_1143">
<rect width="53" height="70" fill="white" transform="translate(751 852)"/>
</clipPath>
<clipPath id="clip10_29_1143">
<rect width="11" height="70" fill="white" transform="translate(815 852)"/>
</clipPath>
<clipPath id="clip11_29_1143">
<rect width="67" height="73" fill="white" transform="translate(837 850)"/>
</clipPath>
<clipPath id="clip12_29_1143">
<rect width="56" height="70" fill="white" transform="translate(915 852)"/>
</clipPath>
</defs>
</svg>
