<svg width="47" height="47" viewBox="0 0 47 47" fill="none" xmlns="http://www.w3.org/2000/svg">
<path d="M13.6715 0.454224C13.1019 0.806801 13.0206 1.05994 13.0206 2.55162V3.88961H11.4114C9.49477 3.88961 8.81674 4.02522 7.55107 4.65805C6.16788 5.33609 5.06494 6.43903 4.3869 7.82222C3.75406 9.08789 3.61846 9.76593 3.61846 11.6825V13.2917H2.2895C0.788783 13.2917 0.535649 13.3731 0.18307 13.9426C-0.0610233 14.3495 -0.0610233 15.1269 0.18307 15.5338C0.535649 16.1033 0.788783 16.1847 2.2895 16.1847H3.61846V17.6312V19.0776H2.2895C0.788783 19.0776 0.535649 19.159 0.18307 19.7285C-0.0610233 20.1354 -0.0610233 20.9129 0.18307 21.3197C0.535649 21.8892 0.788783 21.9706 2.2895 21.9706H3.61846V23.4171V24.8636H2.2895C0.788783 24.8636 0.535649 24.9449 0.18307 25.5145C-0.0610233 25.9213 -0.0610233 26.6988 0.18307 27.1056C0.535649 27.6751 0.788783 27.7565 2.2895 27.7565H3.61846V29.203V30.6495H2.2895C0.788783 30.6495 0.535649 30.7308 0.18307 31.3004C-0.0610233 31.7072 -0.0610233 32.4847 0.18307 32.8915C0.535649 33.4611 0.788783 33.5424 2.2895 33.5424H3.61846V35.1516C3.61846 37.0682 3.75406 37.7462 4.3869 39.0119C5.06494 40.3951 6.16788 41.4981 7.55107 42.1761C8.81674 42.8089 9.49477 42.9445 11.4114 42.9445H13.0206V44.2735C13.0206 45.4487 13.0386 45.6476 13.2014 45.9098C13.4726 46.3438 13.8794 46.5607 14.467 46.5607C15.0547 46.5607 15.4615 46.3438 15.7327 45.9098C15.8954 45.6476 15.9135 45.4487 15.9135 44.2735V42.9445H17.36H18.8065V44.2735C18.8065 45.7742 18.8878 46.0273 19.4574 46.3799C19.8642 46.624 20.6417 46.624 21.0485 46.3799C21.6181 46.0273 21.6994 45.7742 21.6994 44.2735V42.9445H23.1459H24.5924V44.2735C24.5924 45.7742 24.6738 46.0273 25.2433 46.3799C25.6501 46.624 26.4276 46.624 26.8344 46.3799C27.404 46.0273 27.4854 45.7742 27.4854 44.2735V42.9445H28.9318H30.3783V44.2735C30.3783 45.7742 30.4597 46.0273 31.0292 46.3799C31.436 46.624 32.2135 46.624 32.6204 46.3799C33.1899 46.0273 33.2713 45.7742 33.2713 44.2735V42.9445H34.8805C36.7971 42.9445 37.4751 42.8089 38.7408 42.1761C40.124 41.4981 41.2269 40.3951 41.9049 39.0119C42.5378 37.7462 42.6734 37.0682 42.6734 35.1516V33.5424H44.0114C45.503 33.5424 45.7562 33.4611 46.1088 32.8915C46.3529 32.4847 46.3529 31.7072 46.1088 31.3004C45.7562 30.7308 45.503 30.6495 44.0114 30.6495H42.6734V29.203V27.7565H44.0114C45.503 27.7565 45.7562 27.6751 46.1088 27.1056C46.3529 26.6988 46.3529 25.9213 46.1088 25.5145C45.7562 24.9449 45.503 24.8636 44.0114 24.8636H42.6734V23.4171V21.9706H44.0114C45.503 21.9706 45.7562 21.8892 46.1088 21.3197C46.3529 20.9129 46.3529 20.1354 46.1088 19.7285C45.7562 19.159 45.503 19.0776 44.0114 19.0776H42.6734V17.6312V16.1847H44.0114C45.503 16.1847 45.7562 16.1033 46.1088 15.5338C46.3529 15.1269 46.3529 14.3495 46.1088 13.9426C45.7562 13.3731 45.503 13.2917 44.0114 13.2917H42.6734V11.6825C42.6734 9.76593 42.5378 9.08789 41.9049 7.82222C41.2269 6.43903 40.124 5.33609 38.7408 4.65805C37.4751 4.02522 36.7971 3.88961 34.8805 3.88961H33.2713V2.55162C33.2713 1.05994 33.1899 0.806801 32.6204 0.454224C32.2135 0.210129 31.436 0.210129 31.0292 0.454224C30.4597 0.806801 30.3783 1.05994 30.3783 2.55162V3.88961H28.9318H27.4854V2.55162C27.4854 1.05994 27.404 0.806801 26.8344 0.454224C26.4276 0.210129 25.6501 0.210129 25.2433 0.454224C24.6738 0.806801 24.5924 1.05994 24.5924 2.55162V3.88961H23.1459H21.6994V2.55162C21.6994 1.3854 21.6814 1.1865 21.5186 0.924332C21.2474 0.490387 20.8406 0.273415 20.253 0.273415C19.6653 0.273415 19.2585 0.490387 18.9873 0.924332C18.8246 1.1865 18.8065 1.3854 18.8065 2.55162V3.88961H17.36H15.9135V2.55162C15.9135 1.3854 15.8954 1.1865 15.7327 0.924332C15.4615 0.490387 15.0547 0.273415 14.467 0.273415C14.1325 0.273415 13.8704 0.327656 13.6715 0.454224ZM31.7796 11.9356C32.1322 13.0295 32.4305 13.9607 32.4576 14.0059C32.4847 14.0511 33.425 14.3856 34.555 14.7472C35.6851 15.1179 36.6072 15.4343 36.6162 15.4614C36.6162 15.4886 35.6851 15.805 34.546 16.1756L32.4847 16.8446L31.8338 18.8064C31.4812 19.8822 31.192 20.8134 31.192 20.8677C31.192 21.2564 30.975 20.723 30.4235 18.9782C30.08 17.8753 29.7455 16.926 29.6912 16.8718C29.637 16.8175 28.6877 16.483 27.5848 16.1395C26.4909 15.7869 25.5868 15.4886 25.5868 15.4614C25.5868 15.4343 26.4909 15.1269 27.5848 14.7834C28.6877 14.4308 29.637 14.1054 29.6912 14.0511C29.7455 13.9969 30.08 13.0476 30.4235 11.9447C30.7761 10.8508 31.0744 9.94674 31.1015 9.94674C31.1287 9.94674 31.436 10.8418 31.7796 11.9356ZM20.7411 20.8225C21.3921 22.8204 21.9616 24.5019 22.0249 24.5471C22.0791 24.6014 23.7607 25.1709 25.7496 25.8128C27.7475 26.4637 29.3839 27.0061 29.3839 27.0333C29.3839 27.0604 27.7475 27.6028 25.7586 28.2537C23.7607 28.8956 22.0791 29.4652 22.0249 29.5194C21.9616 29.5646 21.3921 31.2461 20.7411 33.2441C20.0993 35.242 19.5568 36.8874 19.5297 36.8784C19.5026 36.8784 18.9602 35.242 18.3183 33.2441C17.6764 31.2461 17.1069 29.5646 17.0526 29.5104C16.9984 29.4561 15.3169 28.8866 13.3189 28.2447C11.321 27.6028 9.68463 27.0604 9.68463 27.0333C9.68463 27.0061 11.321 26.4637 13.3189 25.8218C15.3169 25.18 16.9984 24.6104 17.0526 24.5562C17.1069 24.5019 17.6764 22.8204 18.3183 20.8225C18.9602 18.8245 19.5026 17.1882 19.5297 17.1882C19.5568 17.1882 20.0993 18.8245 20.7411 20.8225Z" fill="#525252"/>
</svg>
