<svg width="47" height="47" viewBox="0 0 47 47" fill="none" xmlns="http://www.w3.org/2000/svg">
<path d="M21.7641 1.30947C10.0498 8.77972 1.24491 14.512 1.06248 14.7905C0.755216 15.2418 0.755216 16.0867 1.06248 16.538C1.21611 16.7685 3.7702 18.4584 10.7316 22.9329C24.8271 31.997 23.2428 31.0272 23.8861 31.0272C24.5294 31.0272 22.9451 31.997 37.0407 22.9329C44.002 18.4584 46.5561 16.7685 46.7097 16.538C47.017 16.0867 47.017 15.2418 46.7097 14.7905C46.5561 14.56 44.002 12.8701 37.0407 8.39565C22.9451 -0.668512 24.5294 0.301275 23.8861 0.301275C23.358 0.301275 23.2908 0.33008 21.7641 1.30947ZM25.8257 9.38464C26.1714 9.56708 26.4882 10.0376 26.5458 10.46C26.5938 10.8729 24.1838 20.9741 23.9341 21.4062C23.5596 22.0303 22.7051 22.2703 22.0233 21.9535C21.6201 21.7614 21.1976 21.1277 21.1976 20.7148C21.1976 20.3596 23.5692 10.5273 23.7613 10.0664C24.1069 9.26942 25.0095 8.97176 25.8257 9.38464ZM18.1922 11.161C18.5859 11.305 18.8643 11.6123 19.0468 12.0828C19.3156 12.7837 19.1524 13.1006 17.8753 14.4352C17.2704 15.0593 16.7807 15.6162 16.7807 15.6643C16.7807 15.7123 17.2704 16.2692 17.8753 16.8933C18.6819 17.7383 18.9988 18.1319 19.0756 18.4104C19.3252 19.313 18.5955 20.2732 17.6737 20.2732C17.1648 20.2732 16.6463 19.8603 14.9756 18.1415C12.5463 15.6259 12.5463 15.7315 15.0236 13.1678C15.9646 12.198 16.8671 11.3242 17.0208 11.2282C17.3472 11.0362 17.7889 11.0074 18.1922 11.161ZM30.6362 11.1898C30.9531 11.3146 34.1793 14.5888 34.4194 15.0113C34.573 15.2898 34.5826 16.0003 34.429 16.2692C34.3713 16.3844 33.584 17.2582 32.6814 18.1992C30.8955 20.0715 30.5114 20.35 29.8489 20.2251C28.8695 20.0427 28.2838 18.9001 28.7735 18.1127C28.8695 17.9495 29.4168 17.335 29.9833 16.7397L31.0203 15.6547L30.6458 15.2514C30.4346 15.0305 29.9353 14.5024 29.5416 14.08C29.0999 13.6191 28.7639 13.1678 28.6966 12.9469C28.3126 11.7851 29.5032 10.7097 30.6362 11.1898Z" fill="#525252"/>
<path d="M1.8692 21.7616C1.06264 22.2993 0.841797 22.6354 0.841797 23.3555C0.841797 23.7588 0.899408 23.9796 1.06264 24.2197C1.21627 24.4501 3.77037 26.14 10.7317 30.6145C24.8273 39.6787 23.2429 38.7089 23.8863 38.7089C24.5296 38.7089 22.9453 39.6787 37.0408 30.6145C44.0022 26.14 46.5563 24.4501 46.7099 24.2197C46.998 23.7876 47.0172 22.9522 46.7387 22.5009C46.5563 22.2033 45.3368 21.3295 45.1064 21.3295C45.0392 21.3295 40.7087 24.0852 35.4757 27.4459C28.4472 31.9684 25.7874 33.6295 25.3266 33.7831C24.5008 34.0712 23.3774 34.0808 22.5132 33.8119C22.0043 33.6583 20.0455 32.4293 12.3928 27.5035C7.17903 24.1429 2.81978 21.3871 2.71416 21.3679C2.59894 21.3487 2.24367 21.5119 1.8692 21.7616Z" fill="#525252"/>
<path d="M1.8692 29.443C1.06264 29.9807 0.841797 30.3168 0.841797 31.0369C0.841797 31.4402 0.899408 31.661 1.06264 31.9011C1.21627 32.1315 3.77037 33.8214 10.7317 38.2959C24.8273 47.3601 23.2429 46.3903 23.8863 46.3903C24.5296 46.3903 22.9453 47.3601 37.0408 38.2959C44.0022 33.8214 46.5563 32.1315 46.7099 31.9011C46.998 31.469 47.0172 30.6336 46.7387 30.1823C46.5563 29.8847 45.3368 29.0109 45.1064 29.0109C45.0392 29.0109 40.7087 31.7666 35.4757 35.1273C28.4472 39.6498 25.7874 41.3109 25.3266 41.4645C24.5008 41.7526 23.3774 41.7622 22.5132 41.4933C22.0043 41.3397 20.0455 40.1107 12.3928 35.1849C7.17903 31.8243 2.81978 29.0685 2.71416 29.0493C2.59894 29.0301 2.24367 29.1933 1.8692 29.443Z" fill="#525252"/>
</svg>
