<svg width="59" height="61" viewBox="0 0 59 61" fill="none" xmlns="http://www.w3.org/2000/svg">
<ellipse cx="29.4737" cy="30.5326" rx="29.4737" ry="30.1754" fill="#00A8A8"/>
<path d="M10.2448 45.4045H6.08008L16.2703 31.07L26.4605 45.4045H14.4981L17.4222 41.2312H19.1944L16.2703 37.0578L10.2448 45.4045Z" fill="white"/>
<path d="M30.3593 45.4045L18.2197 28.2575L20.3464 25.2636L34.6126 45.4045H30.3593Z" fill="white"/>
<path d="M38.4229 45.4045L22.3844 22.5419L24.3338 19.6387L40.6381 42.4106L48.6131 31.07H52.8664L42.7648 45.4045H38.4229Z" fill="white"/>
<path d="M33.0578 19.9462C33.0929 19.9769 33.6084 20.1766 34.1989 20.3916C34.7895 20.6118 35.5002 20.9088 35.7754 21.0521C36.7764 21.5795 37.7423 22.4601 38.3729 23.433C38.7983 24.0832 38.9785 24.4826 39.444 25.7984C39.8343 26.9044 39.9194 27.058 40.0896 26.9453C40.1446 26.9095 40.3348 26.4435 40.565 25.7984C41.0305 24.4826 41.2106 24.0832 41.636 23.433C42.2667 22.4601 43.2326 21.5795 44.2335 21.0521C44.5088 20.9088 45.2195 20.6118 45.81 20.3968C46.4006 20.1766 46.9161 19.9667 46.9561 19.9308C46.9962 19.895 47.0112 19.8182 46.9912 19.7414C46.9661 19.6339 46.841 19.5724 45.9502 19.2499C45.3896 19.0451 44.724 18.7737 44.4638 18.6508C43.0474 17.9698 41.8913 16.8127 41.1806 15.3637C41.0605 15.118 40.8153 14.5036 40.6401 13.9967C40.1346 12.5631 40.1646 12.6296 39.9895 12.6501C39.8443 12.6655 39.8343 12.6808 39.4289 13.8175C39.2037 14.4524 38.9235 15.1692 38.8033 15.4047C38.0927 16.8383 36.9516 17.975 35.5452 18.6508C35.285 18.7737 34.6243 19.0399 34.0738 19.2447C33.5233 19.4444 33.0578 19.639 33.0378 19.6697C32.9778 19.7619 32.9928 19.8899 33.0578 19.9462Z" fill="white"/>
</svg>
