<svg width="47" height="52" viewBox="0 0 47 52" fill="none" xmlns="http://www.w3.org/2000/svg">
<path d="M5.70146 0.8988C3.46449 1.38848 1.55027 3.13577 0.860261 5.31709L0.582031 6.1963V26.329V46.4617L0.860261 47.3409C1.5614 49.5445 3.47562 51.2807 5.75711 51.7592C6.91455 52.0041 28.6387 52.0041 29.7962 51.7592C31.7549 51.3475 33.4466 50.0676 34.3035 48.3314C35.0714 46.7734 35.0937 46.573 35.0603 39.94C35.038 36.3676 34.9824 34.1528 34.9267 34.2864C34.8711 34.4088 34.6819 34.8985 34.5038 35.3659C33.9362 36.8684 32.7788 37.8477 31.2652 38.126C29.7183 38.4153 27.9932 37.5918 27.1252 36.145L26.7913 35.5885L26.1013 35.5329C24.7658 35.4327 24.443 35.199 21.0486 31.7935C17.3983 28.1431 17.3315 28.0429 17.3315 26.329C17.3315 24.6151 17.3983 24.515 21.0486 20.8646C24.5766 17.3366 24.7769 17.1919 26.335 17.114C28.4607 17.0028 30.0188 18.2604 30.5975 20.5418C30.6976 20.9091 30.731 20.8201 31.3988 18.8391C32.3448 16.0568 32.9012 15.3 34.4259 14.7435L35.0826 14.4987V10.648C35.0826 6.26308 35.0158 5.78452 34.3146 4.33772C33.5467 2.8019 32.2891 1.71124 30.553 1.09913L29.6849 0.78751L18.0549 0.765251C8.3836 0.754124 6.30244 0.776382 5.70146 0.8988ZM27.1474 4.53805C25.5114 8.68924 25.3 9.08989 24.4208 9.64635C23.4748 10.2473 23.4191 10.2473 17.7766 10.2473C11.8003 10.2473 11.8448 10.2473 10.8209 9.33474C10.1531 8.73376 10.0641 8.56682 9.11813 6.20743L8.39473 4.4045H17.7989C25.2777 4.4045 27.1919 4.43789 27.1474 4.53805ZM22.8961 42.4775C23.1409 42.5443 23.5082 42.7557 23.6974 42.9449C24.4208 43.6238 24.443 44.503 23.7753 45.2487C23.1743 45.9053 22.9072 45.9275 17.4316 45.8942C12.8464 45.8608 12.6461 45.8496 12.2677 45.6271C10.8654 44.8146 11.1659 42.8336 12.7462 42.4664C13.325 42.3217 22.3841 42.3328 22.8961 42.4775Z" fill="#525252"/>
<path d="M34.915 16.9693C34.737 17.0806 34.4921 17.2698 34.3808 17.3923C34.0692 17.7484 28.8496 33.5185 28.8496 34.0972C28.8496 35.0432 29.4283 35.7554 30.2964 35.8667C30.9642 35.9558 31.4761 35.8111 31.8879 35.4216C32.2329 35.0988 32.4777 34.4311 34.9484 26.9968C36.718 21.7104 37.6417 18.7723 37.6417 18.4718C37.6417 17.2031 35.9946 16.2905 34.915 16.9693Z" fill="#525252"/>
<path d="M25.7894 19.4731C25.6113 19.5622 24.1423 20.9422 22.5397 22.5559C18.4998 26.6292 18.4998 26.0282 22.5397 30.1015C24.1423 31.7153 25.6113 33.0953 25.8117 33.1843C27.2473 33.8076 28.6941 32.5054 28.2824 30.9807C28.1822 30.5801 27.8261 30.1683 26.0899 28.421L24.0199 26.3287L26.0899 24.2364C28.3046 22.0106 28.5049 21.699 28.3491 20.8309C28.1265 19.6623 26.8578 18.9946 25.7894 19.4731Z" fill="#525252"/>
<path d="M39.1446 19.4733C38.2765 19.8628 37.8647 20.9201 38.1986 21.8438C38.2654 22.0107 39.2559 23.0903 40.4022 24.2366L42.4834 26.3289L40.3465 28.4657C38.5325 30.2909 38.2097 30.6804 38.143 31.0365C37.8647 32.4945 38.9331 33.5629 40.3911 33.2846C40.7583 33.2179 41.2035 32.8283 43.6853 30.3576C45.2657 28.7884 46.6345 27.3639 46.7236 27.197C46.9239 26.8074 46.9239 25.8503 46.7236 25.4608C46.4787 25.0045 40.9698 19.5623 40.6136 19.4288C40.1907 19.273 39.5452 19.2952 39.1446 19.4733Z" fill="#525252"/>
</svg>
