<svg width="28" height="20" viewBox="0 0 28 20" fill="none" xmlns="http://www.w3.org/2000/svg">
<path d="M18.149 0.108419C18.4774 0.272594 27.088 8.89458 27.2069 9.17764C27.3145 9.44937 27.3145 9.90227 27.2069 10.174C27.1447 10.3212 25.8086 11.6912 22.7742 14.7369C18.2056 19.3112 18.1604 19.3564 17.6678 19.3564C17.2885 19.3564 17.0281 19.2432 16.7564 18.9602C16.3544 18.5526 16.2808 18.0487 16.5413 17.5449C16.5979 17.4373 18.0811 15.9088 19.8417 14.1482L23.046 10.9496L12.3067 10.9213L1.56176 10.893L1.30701 10.7514C1.17114 10.6722 0.978661 10.4967 0.88242 10.3665C0.729568 10.14 0.712585 10.0778 0.712585 9.67582C0.712585 9.27388 0.729568 9.2116 0.88242 8.98516C0.978661 8.85495 1.17114 8.67945 1.30701 8.6002L1.56176 8.45867L12.3067 8.43036L23.046 8.40205L19.8134 5.17518C17.6339 2.99562 16.5469 1.87471 16.4733 1.72186C16.1959 1.13309 16.4563 0.414124 17.0564 0.102758C17.3395 -0.0444317 17.849 -0.0387707 18.149 0.108419Z" fill="white"/>
</svg>
