<svg width="47" height="47" viewBox="0 0 47 47" fill="none" xmlns="http://www.w3.org/2000/svg">
<path d="M13.6715 0.567261C13.1019 0.919838 13.0206 1.17298 13.0206 2.66466V4.00265H11.4114C9.49477 4.00265 8.81674 4.13826 7.55107 4.77109C6.16788 5.44913 5.06494 6.55207 4.3869 7.93526C3.75406 9.20093 3.61846 9.87897 3.61846 11.7956V13.4048H2.2895C0.788783 13.4048 0.535649 13.4861 0.18307 14.0557C-0.0610233 14.4625 -0.0610233 15.24 0.18307 15.6468C0.535649 16.2164 0.788783 16.2977 2.2895 16.2977H3.61846V17.7442V19.1907H2.2895C0.788783 19.1907 0.535649 19.272 0.18307 19.8416C-0.0610233 20.2484 -0.0610233 21.0259 0.18307 21.4327C0.535649 22.0023 0.788783 22.0836 2.2895 22.0836H3.61846V23.5301V24.9766H2.2895C0.788783 24.9766 0.535649 25.058 0.18307 25.6275C-0.0610233 26.0343 -0.0610233 26.8118 0.18307 27.2186C0.535649 27.7882 0.788783 27.8695 2.2895 27.8695H3.61846V29.316V30.7625H2.2895C0.788783 30.7625 0.535649 30.8439 0.18307 31.4134C-0.0610233 31.8202 -0.0610233 32.5977 0.18307 33.0045C0.535649 33.5741 0.788783 33.6555 2.2895 33.6555H3.61846V35.2647C3.61846 37.1813 3.75406 37.8593 4.3869 39.125C5.06494 40.5082 6.16788 41.6111 7.55107 42.2891C8.81674 42.922 9.49477 43.0576 11.4114 43.0576H13.0206V44.3865C13.0206 45.5618 13.0386 45.7607 13.2014 46.0228C13.4726 46.4568 13.8794 46.6738 14.467 46.6738C15.0547 46.6738 15.4615 46.4568 15.7327 46.0228C15.8954 45.7607 15.9135 45.5618 15.9135 44.3865V43.0576H17.36H18.8065V44.3865C18.8065 45.8872 18.8878 46.1404 19.4574 46.493C19.8642 46.737 20.6417 46.737 21.0485 46.493C21.6181 46.1404 21.6994 45.8872 21.6994 44.3865V43.0576H23.1459H24.5924V44.3865C24.5924 45.8872 24.6738 46.1404 25.2433 46.493C25.6501 46.737 26.4276 46.737 26.8344 46.493C27.404 46.1404 27.4854 45.8872 27.4854 44.3865V43.0576H28.9318H30.3783V44.3865C30.3783 45.8872 30.4597 46.1404 31.0292 46.493C31.436 46.737 32.2135 46.737 32.6204 46.493C33.1899 46.1404 33.2713 45.8872 33.2713 44.3865V43.0576H34.8805C36.7971 43.0576 37.4751 42.922 38.7408 42.2891C40.124 41.6111 41.2269 40.5082 41.9049 39.125C42.5378 37.8593 42.6734 37.1813 42.6734 35.2647V33.6555H44.0114C45.503 33.6555 45.7562 33.5741 46.1088 33.0045C46.3529 32.5977 46.3529 31.8202 46.1088 31.4134C45.7562 30.8439 45.503 30.7625 44.0114 30.7625H42.6734V29.316V27.8695H44.0114C45.503 27.8695 45.7562 27.7882 46.1088 27.2186C46.3529 26.8118 46.3529 26.0343 46.1088 25.6275C45.7562 25.058 45.503 24.9766 44.0114 24.9766H42.6734V23.5301V22.0836H44.0114C45.503 22.0836 45.7562 22.0023 46.1088 21.4327C46.3529 21.0259 46.3529 20.2484 46.1088 19.8416C45.7562 19.272 45.503 19.1907 44.0114 19.1907H42.6734V17.7442V16.2977H44.0114C45.503 16.2977 45.7562 16.2164 46.1088 15.6468C46.3529 15.24 46.3529 14.4625 46.1088 14.0557C45.7562 13.4861 45.503 13.4048 44.0114 13.4048H42.6734V11.7956C42.6734 9.87897 42.5378 9.20093 41.9049 7.93526C41.2269 6.55207 40.124 5.44913 38.7408 4.77109C37.4751 4.13826 36.7971 4.00265 34.8805 4.00265H33.2713V2.66466C33.2713 1.17298 33.1899 0.919838 32.6204 0.567261C32.2135 0.323166 31.436 0.323166 31.0292 0.567261C30.4597 0.919838 30.3783 1.17298 30.3783 2.66466V4.00265H28.9318H27.4854V2.66466C27.4854 1.17298 27.404 0.919838 26.8344 0.567261C26.4276 0.323166 25.6501 0.323166 25.2433 0.567261C24.6738 0.919838 24.5924 1.17298 24.5924 2.66466V4.00265H23.1459H21.6994V2.66466C21.6994 1.49843 21.6814 1.29954 21.5186 1.03737C21.2474 0.603424 20.8406 0.386452 20.253 0.386452C19.6653 0.386452 19.2585 0.603424 18.9873 1.03737C18.8246 1.29954 18.8065 1.49843 18.8065 2.66466V4.00265H17.36H15.9135V2.66466C15.9135 1.49843 15.8954 1.29954 15.7327 1.03737C15.4615 0.603424 15.0547 0.386452 14.467 0.386452C14.1325 0.386452 13.8704 0.440693 13.6715 0.567261ZM31.7796 12.0487C32.1322 13.1426 32.4305 14.0738 32.4576 14.119C32.4847 14.1642 33.425 14.4987 34.555 14.8603C35.6851 15.2309 36.6072 15.5474 36.6162 15.5745C36.6162 15.6016 35.6851 15.918 34.546 16.2887L32.4847 16.9577L31.8338 18.9195C31.4812 19.9953 31.192 20.9264 31.192 20.9807C31.192 21.3694 30.975 20.836 30.4235 19.0912C30.08 17.9883 29.7455 17.039 29.6912 16.9848C29.637 16.9305 28.6877 16.5961 27.5848 16.2525C26.4909 15.8999 25.5868 15.6016 25.5868 15.5745C25.5868 15.5474 26.4909 15.24 27.5848 14.8964C28.6877 14.5439 29.637 14.2184 29.6912 14.1642C29.7455 14.1099 30.08 13.1607 30.4235 12.0577C30.7761 10.9638 31.0744 10.0598 31.1015 10.0598C31.1287 10.0598 31.436 10.9548 31.7796 12.0487ZM20.7411 20.9355C21.3921 22.9334 21.9616 24.615 22.0249 24.6602C22.0791 24.7144 23.7607 25.284 25.7496 25.9258C27.7475 26.5768 29.3839 27.1192 29.3839 27.1463C29.3839 27.1734 27.7475 27.7159 25.7586 28.3668C23.7607 29.0086 22.0791 29.5782 22.0249 29.6324C21.9616 29.6776 21.3921 31.3592 20.7411 33.3571C20.0993 35.3551 19.5568 37.0004 19.5297 36.9914C19.5026 36.9914 18.9602 35.3551 18.3183 33.3571C17.6764 31.3592 17.1069 29.6776 17.0526 29.6234C16.9984 29.5692 15.3169 28.9996 13.3189 28.3577C11.321 27.7159 9.68463 27.1734 9.68463 27.1463C9.68463 27.1192 11.321 26.5768 13.3189 25.9349C15.3169 25.293 16.9984 24.7235 17.0526 24.6692C17.1069 24.615 17.6764 22.9334 18.3183 20.9355C18.9602 18.9375 19.5026 17.3012 19.5297 17.3012C19.5568 17.3012 20.0993 18.9375 20.7411 20.9355Z" fill="#00A8A8"/>
</svg>
