<svg width="18" height="19" viewBox="0 0 18 19" fill="none" xmlns="http://www.w3.org/2000/svg">
<path d="M0.829152 9.66401C0.872298 9.7009 1.50717 9.94068 2.23449 10.1989C2.96182 10.4633 3.83708 10.8199 4.17609 10.992C5.40884 11.6253 6.59845 12.6827 7.37509 13.8509C7.89901 14.6317 8.12091 15.1112 8.69414 16.6913C9.17492 18.0193 9.2797 18.2037 9.48927 18.0685C9.55707 18.0254 9.79129 17.466 10.0748 16.6913C10.6481 15.1112 10.87 14.6317 11.3939 13.8509C12.1705 12.6827 13.3601 11.6253 14.5929 10.992C14.9319 10.8199 15.8071 10.4633 16.5345 10.205C17.2618 9.94068 17.8967 9.68861 17.946 9.64557C17.9953 9.60253 18.0138 9.51031 17.9891 9.41809C17.9583 9.28898 17.8042 9.2152 16.7071 8.82787C16.0167 8.58195 15.1969 8.2561 14.8764 8.10854C13.1321 7.29084 11.7082 5.90137 10.833 4.16145C10.685 3.86634 10.383 3.12857 10.1673 2.51991C9.54474 0.798436 9.58173 0.87836 9.36599 0.902953C9.18724 0.921397 9.17492 0.939843 8.67565 2.30472C8.39828 3.06709 8.05311 3.92782 7.90518 4.21064C7.02992 5.93211 5.62458 7.29699 3.89255 8.10854C3.57204 8.2561 2.75842 8.5758 2.0804 8.82172C1.40238 9.0615 0.829152 9.29513 0.804498 9.33202C0.730533 9.44268 0.749023 9.59638 0.829152 9.66401Z" fill="white"/>
</svg>
