<svg width="18" height="19" viewBox="0 0 18 19" fill="none" xmlns="http://www.w3.org/2000/svg">
<path d="M0.0713397 9.66401C0.114486 9.7009 0.749356 9.94068 1.47668 10.1989C2.20401 10.4633 3.07927 10.8199 3.41827 10.992C4.65103 11.6253 5.84064 12.6827 6.61728 13.8509C7.1412 14.6317 7.3631 15.1112 7.93633 16.6913C8.4171 18.0193 8.52189 18.2037 8.73146 18.0685C8.79926 18.0254 9.03348 17.466 9.31702 16.6913C9.89025 15.1112 10.1121 14.6317 10.6361 13.8509C11.4127 12.6827 12.6023 11.6253 13.8351 10.992C14.1741 10.8199 15.0493 10.4633 15.7767 10.205C16.504 9.94068 17.1389 9.68861 17.1882 9.64557C17.2375 9.60253 17.256 9.51031 17.2313 9.41809C17.2005 9.28898 17.0464 9.2152 15.9492 8.82787C15.2589 8.58195 14.4391 8.2561 14.1186 8.10854C12.3743 7.29084 10.9504 5.90137 10.0752 4.16145C9.92723 3.86634 9.62521 3.12857 9.40947 2.51991C8.78693 0.798436 8.82391 0.87836 8.60818 0.902953C8.42943 0.921397 8.4171 0.939843 7.91784 2.30472C7.64047 3.06709 7.2953 3.92782 7.14736 4.21064C6.27211 5.93211 4.86676 7.29699 3.13474 8.10854C2.81422 8.2561 2.0006 8.5758 1.32259 8.82172C0.644572 9.0615 0.0713397 9.29513 0.0466853 9.33202C-0.0272798 9.44268 -0.00878994 9.59638 0.0713397 9.66401Z" fill="#00A8A8"/>
</svg>
