<svg width="45" height="44" viewBox="0 0 45 44" fill="none" xmlns="http://www.w3.org/2000/svg">
<path d="M3.28469 0.677278C2.27246 1.04305 1.52391 1.72354 1.03906 2.71026L0.766858 3.27167L0.741339 6.98888L0.71582 10.7146H22.5002H44.2846L44.2591 6.98888L44.2336 3.27167L43.9443 2.67624C43.5616 1.89367 42.8896 1.22167 42.107 0.838896L41.5116 0.549685L22.6278 0.532672C4.16083 0.51566 3.73552 0.51566 3.28469 0.677278ZM38.4068 5.84054C38.7981 6.07872 39.0022 6.44448 39.0022 6.88681C39.0022 7.32913 38.7981 7.6949 38.4068 7.93307C38.1091 8.12021 38.0751 8.12021 33.9836 8.12021C30.0112 8.12021 29.8496 8.1117 29.5774 7.95008C29.1946 7.72042 28.9649 7.32913 28.9649 6.89531C28.9649 6.27436 29.3137 5.84054 29.9431 5.68743C30.0792 5.65341 31.9761 5.62789 34.1537 5.6364C38.0581 5.65341 38.1091 5.65341 38.4068 5.84054ZM7.8185 5.85756C8.18427 6.10424 8.37991 6.45299 8.37991 6.88681C8.37991 7.5673 7.86954 8.07768 7.18904 8.07768C6.28738 8.07768 5.70046 7.10797 6.12577 6.29988C6.40647 5.74698 7.29112 5.51731 7.8185 5.85756ZM12.9222 5.85756C13.6793 6.35942 13.6793 7.41419 12.9222 7.91606C12.4033 8.25631 11.6293 8.06917 11.2635 7.51627C11.0679 7.21855 11.0509 6.63162 11.2295 6.29988C11.5102 5.74698 12.3948 5.51731 12.9222 5.85756ZM18.0259 5.85756C18.3917 6.10424 18.5874 6.45299 18.5874 6.88681C18.5874 8.09469 17.0392 8.5285 16.3672 7.51627C16.1716 7.21855 16.1546 6.63162 16.3332 6.29988C16.6139 5.74698 17.4986 5.51731 18.0259 5.85756Z" fill="#525252"/>
<path d="M0.580489 27.191L0.606008 41.1242L0.878206 41.6856C1.37157 42.6979 2.13712 43.3698 3.16637 43.7186C3.65973 43.8887 3.90641 43.8887 22.5095 43.8717L41.3507 43.8462L41.9462 43.557C42.7287 43.1742 43.4007 42.5022 43.7835 41.7196L44.0727 41.1242L44.0982 27.191L44.1152 13.2664H22.3394H0.563477L0.580489 27.191ZM26.7626 17.3068C27.0943 17.477 27.358 17.9363 27.358 18.3531C27.358 18.6168 26.4649 20.7774 23.4877 27.7269C21.3611 32.6946 19.5663 36.8371 19.4983 36.9307C19.0134 37.6197 17.9587 37.5856 17.4823 36.8626C17.1336 36.3267 17.0655 36.4968 21.2421 26.7487C24.9508 18.0979 25.1889 17.5875 25.4781 17.3834C25.8354 17.1452 26.3798 17.1112 26.7626 17.3068ZM15.3388 21.1857C15.4919 21.2792 15.679 21.4749 15.7471 21.6025C15.9172 21.9342 15.9087 22.4956 15.73 22.8018C15.6535 22.9294 14.4031 23.9842 12.9655 25.1411C11.528 26.2894 10.3456 27.2591 10.3456 27.3016C10.3456 27.3357 11.545 28.3309 13.0081 29.5047C14.4966 30.6871 15.7215 31.7249 15.7726 31.8524C15.9087 32.1587 15.9002 32.7031 15.7471 33.0008C15.4919 33.4941 14.6412 33.7663 14.1564 33.5026C13.7056 33.2645 7.30039 28.0502 7.21533 27.8545C7.08774 27.5738 7.08774 27.0294 7.21533 26.7487C7.30039 26.5616 13.629 21.3983 14.1309 21.1091C14.4116 20.9475 15.0155 20.99 15.3388 21.1857ZM30.5223 21.1006C30.9732 21.3388 37.3783 26.5531 37.4634 26.7487C37.5229 26.8678 37.5655 27.123 37.5655 27.3016C37.5655 27.4803 37.5229 27.7354 37.4634 27.8545C37.3783 28.0502 30.9732 33.2645 30.5223 33.5026C30.0375 33.7663 29.1869 33.4941 28.9317 33.0008C28.7615 32.669 28.77 32.1076 28.9487 31.8014C29.0252 31.6738 30.2756 30.619 31.7132 29.4622C33.1507 28.3139 34.3331 27.3357 34.3331 27.3016C34.3331 27.2676 33.1507 26.2894 31.7132 25.1411C30.2756 23.9842 29.0252 22.9294 28.9487 22.8018C28.6425 22.2745 28.8296 21.4834 29.34 21.1772C29.6462 20.99 30.2416 20.956 30.5223 21.1006Z" fill="#525252"/>
</svg>
